<?xml version="1.0" encoding="UTF-8"?>
<svg width="24px" height="24px" viewBox="0 0 24 24" version="1.1" xmlns="http://www.w3.org/2000/svg" xmlns:xlink="http://www.w3.org/1999/xlink">
    <title>编辑</title>
    <defs>
        <filter color-interpolation-filters="auto" id="filter-1">
            <feColorMatrix in="SourceGraphic" type="matrix" values="0 0 0 0 0.200000 0 0 0 0 0.200000 0 0 0 0 0.200000 0 0 0 1.000000 0"></feColorMatrix>
        </filter>
    </defs>
    <g id="切图" stroke="none" stroke-width="1" fill="none" fill-rule="evenodd">
        <g transform="translate(-142.000000, -73.000000)" id="编辑">
      <g transform="translate(142.000000, 73.000000)" id="icon_功能/编辑" filter="url(#filter-1)">
                <g>
                    <path d="M17.2530337,4.90802583 L14.2054147,4.90802583 C13.9292723,4.90802583 13.7054147,5.13188346 13.7054147,5.40802583 L13.7054147,9.9794544 C13.7054147,10.2555968 13.9292723,10.4794544 14.2054147,10.4794544 L17.2530337,10.4794544 C17.5291761,10.4794544 17.7530337,10.2555968 17.7530337,9.9794544 L17.7530337,5.40802583 C17.7530337,5.13188346 17.5291761,4.90802583 17.2530337,4.90802583 Z M16.753,5.908 L16.753,9.479 L14.705,9.479 L14.705,5.908 L16.753,5.908 Z" id="矩形" fill="#ff0000" fill-rule="nonzero" transform="translate(15.729224, 7.693740) scale(-1, 1) rotate(45.000000) translate(-15.729224, -7.693740) "></path>
                    <path d="M14.6341869,10.7801072 L3,10.7801072 C2.72385763,10.7801072 2.5,11.0039648 2.5,11.2801072 L2.5,15.8515358 C2.5,16.1276781 2.72385763,16.3515358 3,16.3515358 L14.6341869,16.3515358 C14.7749687,16.3515358 14.9092273,16.2921856 15.0039816,16.1880649 L17.0840804,13.9023506 C17.2576875,13.7115827 17.2576875,13.4200602 17.0840804,13.2292923 L15.0039816,10.943578 C14.9092273,10.8394573 14.7749687,10.7801072 14.6341869,10.7801072 Z M14.413,11.78 L16.038,13.565 L14.413,15.351 L3.499,15.351 L3.499,11.78 L14.413,11.78 Z" id="路径-6" fill="#ff0000" fill-rule="nonzero" transform="translate(9.857143, 13.565821) scale(-1, 1) rotate(45.000000) translate(-9.857143, -13.565821) "></path>
                    <path d="M19.4732748,18.1461211 C19.7494171,18.1461211 19.9732748,18.3699787 19.9732748,18.6461211 C19.9732748,18.891581 19.7963996,19.0957294 19.5631504,19.1380654 L19.4732748,19.1461211 L11.269374,19.1461211 C10.9932316,19.1461211 10.769374,18.9222634 10.769374,18.6461211 C10.769374,18.4006612 10.9462492,18.1965127 11.1794984,18.1541767 L11.269374,18.1461211 L19.4732748,18.1461211 Z" id="直线-4" fill="#ff0000" fill-rule="nonzero"></path>
                </g>
            </g>
        </g>
    </g>
</svg>