<?xml version="1.0" encoding="UTF-8"?>
<svg width="222px" height="148px" viewBox="0 0 222 148" version="1.1"
  xmlns="http://www.w3.org/2000/svg" xmlns:xlink="http://www.w3.org/1999/xlink">
  <title>暂无XXXXX备份</title>
  <defs>
    <linearGradient x1="0%" y1="0%" x2="0%" y2="100%" id="linearGradient-1">
      <stop stop-color="#ff0000" stop-opacity="0.6" offset="0%"></stop>
      <stop stop-color="#ff0000" stop-opacity="0" offset="100%"></stop>
    </linearGradient>
    <linearGradient x1="0%" y1="100%" x2="0%" y2="0%" id="linearGradient-2">
      <stop stop-color="#ff0000" offset="0%"></stop>
      <stop stop-color="#ff0000" stop-opacity="0.5" offset="56.8808066%"></stop>
      <stop stop-color="#ff0000" stop-opacity="0" offset="100%"></stop>
    </linearGradient>
    <linearGradient x1="2.6524%" y1="23.98536%" x2="0%" y2="99.939%" id="linearGradient-3">
      <stop stop-color="#ff0000" offset="0%"></stop>
      <stop stop-color="#ff0000" stop-opacity="0.5" offset="67%"></stop>
      <stop stop-color="#ff0000" stop-opacity="0" offset="100%"></stop>
    </linearGradient>
    <linearGradient x1="3.97784%" y1="23.8383048%" x2="0.0468252914%" y2="99.2118989%"
      id="linearGradient-4">
      <stop stop-color="#ff0000" offset="0%"></stop>
      <stop stop-color="#ff0000" stop-opacity="0.5" offset="68.9321157%"></stop>
      <stop stop-color="#ff0000" stop-opacity="0" offset="100%"></stop>
    </linearGradient>
  </defs>
  <g id="切图" stroke="none" stroke-width="1" fill="none" fill-rule="evenodd">
    <g transform="translate(-43.000000, -910.000000)" id="暂无XXXXX备份">
      <g transform="translate(43.000000, 910.000000)">
        <rect id="矩形" x="0" y="0" width="221.4" height="147.6"></rect>
        <path
          d="M111.93041,113.98 C156.53841,113.98 192.70041,119.76223 192.70041,126.895 C192.70041,134.02736 156.53841,139.81 111.93041,139.81 C67.322,139.81 31.16,134.02736 31.16,126.895 C31.16,119.76223 67.322,113.98 111.93041,113.98 Z"
          id="路径" fill="url(#linearGradient-1)" opacity="0.765671503"></path>
        <path
          d="M60.4667355,122.694594 C60.4667355,122.694594 94.32747,47.52761 105.57541,14.87521 C105.5012,14.94327 110.7,0 110.7,0 L161.063129,122.924701 C161.063129,122.924701 119.532975,104.946924 60.4667355,122.694594 Z"
          id="路径" fill="url(#linearGradient-2)" opacity="0.533644903"></path>
        <path
          d="M110.7,113.57 C134.02285,113.57 161.13,117.975325 161.13,123.41 C161.13,128.844247 134.02285,133.25 110.7,133.25 C87.37674,133.25 60.27,128.844247 60.27,123.41 C60.27,117.975325 87.37674,113.57 110.7,113.57 Z"
          id="路径" fill="#ff0000"></path>
        <path
          d="M109.56635,113.03044 C117.70239,111.90089 127.66744,114.22436 128.29515,118.71099 C128.92245,123.19721 119.97461,128.14673 111.83816,129.27628 C103.70212,130.40624 93.73707,128.08236 93.10977,123.59614 C92.48206,119.10992 101.4299,114.1604 109.56635,113.03044 Z"
          id="路径"></path>
        <path
          d="M148.01,17.22 C148.01,17.22 143.254,55.19953 114.8,52.48 C114.77499,52.47754 105.95999,47.27464 112.75,41.41 C112.74426,41.47478 122.49119,37.84587 121.77,47.56 C121.73843,47.55426 121.75442,69.11288 80.36,65.19"
          id="路径" stroke="#ff0000" stroke-width="0.5" stroke-dasharray="1.64,0.82"></path>
        <path
          d="M71.55238,66.57457 C71.50933,66.53152 68.46508,63.63487 64.14409,67.281 C62.20315,69.33223 61.14863,70.40848 60.4094,70.80536 C60.43441,70.77871 69.00095,74.92709 72.04438,69.14773 C71.97755,69.18709 72.77418,67.80293 71.55238,66.57457 Z"
          id="路径" fill="#ff0000"></path>
        <path
          d="M102.93542,124.46329 C102.93542,124.46329 100.73536,129.39108 97.33646,129.05365 C97.30243,128.97247 94.69565,128.04915 99.79318,122.860995 C99.71077,122.85527 102.93542,124.46329 102.93542,124.46329 Z"
          id="路径" fill="#ff0000"></path>
        <path
          d="M98.15646,123.31365 C98.15646,123.31365 95.74197,128.18568 93.22375,127.33001 C92.9093212,127.09262 92.32503,125.73593 94.50254,122.37721 C95.34058,121.29276 98.15646,123.31365 98.15646,123.31365 Z"
          id="路径" fill="#ff0000"></path>
        <path
          d="M116.19646,103.22365 C116.19646,103.22365 114.53432,98.154 108.81646,100.76365 C108.65287,100.59596 106.76154,97.17369 103.89646,98.30365 C103.74435,98.46478 101.0117,98.77802 99.79646,103.63365 C99.794,103.64021 94.05646,122.08365 94.05646,122.08365 C94.05646,122.08365 94.93796,124.34603 98.15646,124.13365 C98.33645,124.15743 99.08921,126.80398 103.07646,125.36365 C102.96371,125.38784 106.76646,120.03365 106.76646,120.03365 C106.76646,120.03365 107.10594,120.8557 110.45646,122.08365 C115.75653,124.02664 125.03401,122.61542 125.21646,113.88365 C125.3575,113.80862 116.19646,103.22365 116.19646,103.22365 Z"
          id="路径" fill="#ff0000"></path>
        <line x1="109.22646" y1="101.17365" x2="98.15646" y2="123.72365" id="路径" stroke="#ff0000"
          stroke-width="0.5"></line>
        <line x1="110.45646" y1="113.47365" x2="106.76646" y2="119.62365" id="路径" stroke="#ff0000"
          stroke-width="0.5"></line>
        <path
          d="M101.02646,96.25365 C101.02646,96.25365 96.4074,102.71197 96.51646,104.86365 C96.51031,104.93622 96.13024,107.40032 101.02646,109.37365 C100.95676,109.32568 107.99646,112.24365 107.99646,112.24365 L111.27646,110.60406 C111.27646,110.60406 102.45941,105.288 100.20646,104.04365 C100.14824,104.06989 100.76119,100.05722 103.48646,98.71365 C103.43972,98.7567 104.30646,98.30365 104.30646,98.30365 L101.02646,96.25365 Z"
          id="路径" fill="#ff0000"></path>
        <path
          d="M120.70646,105.27365 L115.78646,112.24365 C115.78646,112.24365 114.05134,114.56999 111.27646,113.88365 C111.22357,113.94515 103.54263,111.87834 98.97646,107.73365 C98.89405,107.75292 97.01092,104.27899 103.07646,107.32365 C103.05719,107.37941 101.43646,106.78327 101.84646,106.09365 C101.88295,106.04486 103.06662,105.61805 104.71646,108.55365 C104.71195,108.66025 110.36831,110.30517 111.27646,110.60406 C111.33058,110.68893 116.60646,102.81365 116.60646,102.81365 L121.11646,104.86365 L120.70646,105.27365 Z"
          id="路径" fill="#ff0000"></path>
        <path
          d="M100.61646,96.25365 C100.61646,96.25365 103.91081,89.96302 111.27646,90.51406 C111.38593,90.40459 121.82904,90.20369 123.57646,98.30365 C123.59245,98.40451 124.04796,100.58448 123.57646,102.81365 C123.59245,102.92845 125.62646,115.52365 125.62646,115.52365 L120.70646,113.06365 L118.65646,108.14365 L120.70646,105.27365 L115.78646,103.22365 C115.78646,103.22365 113.66881,98.33522 108.81646,101.17365 C108.82958,101.29091 107.37449,97.78623 103.89646,98.71365 C103.96411,98.73415 100.61646,96.25365 100.61646,96.25365 Z"
          id="路径" fill="#ff0000"></path>
        <path
          d="M108.81646,79.44365 C108.81646,79.44365 107.54915,80.65028 107.17646,82.31365 C107.20598,82.30135 105.15147,87.8343 107.58646,89.69365 C107.60819,89.67602 108.86484,90.38204 110.04646,89.69365 C110.02186,89.60878 110.07147,91.18154 110.04646,91.33365 C110.08869,91.28486 112.63561,94.78626 115.78646,90.92365 C115.8537,90.88265 115.08495,90.26847 114.96646,88.46365 C114.91521,88.46939 117.83646,85.18365 117.83646,85.18365 L115.78646,80.67365 L112.09646,79.44365 L108.81646,79.44365 Z"
          id="路径" fill="#ff0000"></path>
        <path
          d="M112.50646,80.26365 C112.50646,80.26365 116.40146,81.44855 114.96646,85.18365 C115.00336,85.23859 117.06443,84.23122 116.60646,85.59365 C116.55726,85.64736 114.84551,87.02496 114.55646,88.05365 C114.59459,88.10121 121.40551,86.07704 117.83646,78.62365 C117.62039,78.44981 115.48675,76.00826 112.09646,76.98365 C112.05915,76.9775 110.56265,77.23539 108.81646,76.98365 C108.70617,76.9775 106.12153,76.64622 106.35646,78.62365 C106.33555,78.69622 106.04568,80.42724 112.50646,80.26365 Z"
          id="路径" fill="#ff0000"></path>
        <path d="M61.9138439,70.5477772 C61.9138439,70.5477772 69.5483,68.64425 73.93284,65.9854"
          id="路径" stroke="#ff0000" stroke-width="0.82" stroke-linecap="round"
          stroke-linejoin="round"></path>
        <path
          d="M168.55018,102.04941 C168.5961,102.03424 171.77073,101.04819 173.55546,105.14901 C174.21228,107.28429 174.58251,108.41712 174.9675,108.95791 C174.95889,108.93044 167.42965,108.86689 167.29886,103.7013 C167.33207,103.75296 167.25335,102.4918 168.55018,102.04941 Z"
          id="路径" fill="#ff0000"></path>
        <path d="M172.83017,106.5918 C172.83017,106.5918 168.01554,103.80995 165.83926,100.38686"
          id="路径" stroke="#ff0000" stroke-width="0.82" stroke-linecap="round"
          stroke-linejoin="round"></path>
        <path
          d="M42.8516024,31.587861 C42.8516024,31.587861 45.4862624,23.763011 54.7416024,25.847861 C54.8326224,25.724041 57.8465324,19.303031 66.2216024,19.697451 C66.3154924,19.650711 73.7885624,20.182071 75.2416024,25.437861 C75.2592324,25.392761 84.0848924,26.312391 82.2116024,33.637861 C81.9943024,33.674761 43.6716024,34.047861 43.6716024,34.047861 C43.6716024,34.047861 42.0787524,33.796121 42.8516024,31.587861 Z"
          id="路径" fill="url(#linearGradient-3)"></path>
        <path
          d="M150.432983,56.7126954 C150.432983,56.7126954 154.270179,49.0747886 161.176972,54.3192426 C161.274861,54.2625976 165.40692,53.4667745 165.952078,57.1120032 C166.034051,57.178222 172.070183,59.0183883 168.737159,61.5 C168.7292,61.4708797 148.443355,61.5 148.443355,61.5 C148.443355,61.5 143.604581,59.0586781 150.432983,56.7126954 Z"
          id="路径备份" fill="url(#linearGradient-4)"></path>
      </g>
    </g>
  </g>
</svg>